# xmcd CD database file
#
# Track frame offsets:
#	150
#	11707
#	22865
#	32812
#	46657
#	57392
#	67802
#	77145
#	88002
#	98679
#	110304
#	121617
#	132032
#	143517
#
# Disc length: 2049 seconds
#
# Revision: 1
# Processed by: cddbd v1.5.2PL0 Copyright (c) Steve Scherf et al.
# Submitted via: CDex 1.51
#
DISCID=9f07ff0e
DTITLE=Patsy Cline - Crazy - Disk 2
DYEAR=2000
DGENRE=Country
TTITLE0=Walkin' After Midnight
TTITLE1=Hidin' Out
TTITLE2=Turn The Cards Slowly
TTITLE3=A Church, A Courtroom, And Then Goodbye
TTITLE4=Honkytonk Merry-Go-Round
TTITLE5=I Love You Honey
TTITLE6=Come On In
TTITLE7=I Cried All The Way To The Altar
TTITLE8=Stop, Look And Listen
TTITLE9=I've Loved And Lost Again
TTITLE10=Dear God
TTITLE11=He Will Do For You
TTITLE12=The Heart You Break Maybe Your Own
TTITLE13=Pick Me Up On Your Way Down
EXTD=Patsy Cline - Crazy - 3CD Box YEAR: 2000
EXTT0=
EXTT1=
EXTT2=
EXTT3=
EXTT4=
EXTT5=
EXTT6=
EXTT7=
EXTT8=
EXTT9=
EXTT10=
EXTT11=
EXTT12=
EXTT13=
PLAYORDER=
